<svg xmlns="http://www.w3.org/2000/svg" viewBox="0 0 64 64">
<g transform="rotate(90 32 32)">
<ellipse cx="32" cy="30" rx="6.5" ry="5.5" fill="#64D2FF"/>
<ellipse cx="32" cy="30" rx="3" ry="2.5" fill="#64D2FF" opacity="0.3"/>
<path d="M28,25 Q22,16 16,10" stroke="#64D2FF" stroke-width="2.2" fill="none" stroke-linecap="round"/>
<path d="M16,10 Q12,6 7,4" stroke="#64D2FF" stroke-width="1.4" fill="none" stroke-linecap="round"/>
<path d="M16,10 Q14,5 12,1" stroke="#64D2FF" stroke-width="1.4" fill="none" stroke-linecap="round"/>
<circle cx="7" cy="4" r="1.4" fill="#64D2FF" opacity="0.6"/>
<circle cx="12" cy="1" r="1.4" fill="#64D2FF" opacity="0.6"/>
<path d="M32,25 Q33,14 31,7" stroke="#64D2FF" stroke-width="2.2" fill="none" stroke-linecap="round"/>
<path d="M31,7 Q28,3 24,1" stroke="#64D2FF" stroke-width="1.4" fill="none" stroke-linecap="round"/>
<path d="M31,7 Q34,3 38,1" stroke="#64D2FF" stroke-width="1.4" fill="none" stroke-linecap="round"/>
<circle cx="24" cy="1" r="1.4" fill="#64D2FF" opacity="0.6"/>
<circle cx="38" cy="1" r="1.4" fill="#64D2FF" opacity="0.6"/>
<path d="M36,25 Q42,16 48,10" stroke="#64D2FF" stroke-width="2.2" fill="none" stroke-linecap="round"/>
<path d="M48,10 Q52,6 57,4" stroke="#64D2FF" stroke-width="1.4" fill="none" stroke-linecap="round"/>
<path d="M48,10 Q50,5 52,1" stroke="#64D2FF" stroke-width="1.4" fill="none" stroke-linecap="round"/>
<circle cx="57" cy="4" r="1.4" fill="#64D2FF" opacity="0.6"/>
<circle cx="52" cy="1" r="1.4" fill="#64D2FF" opacity="0.6"/>
<path d="M26,31 Q18,29 10,26" stroke="#64D2FF" stroke-width="1.8" fill="none" stroke-linecap="round"/>
<path d="M10,26 Q5,24 2,21" stroke="#64D2FF" stroke-width="1.2" fill="none" stroke-linecap="round"/>
<circle cx="2" cy="21" r="1.2" fill="#64D2FF" opacity="0.5"/>
<path d="M38,31 Q46,29 54,26" stroke="#64D2FF" stroke-width="1.8" fill="none" stroke-linecap="round"/>
<path d="M54,26 Q59,24 62,21" stroke="#64D2FF" stroke-width="1.2" fill="none" stroke-linecap="round"/>
<circle cx="62" cy="21" r="1.2" fill="#64D2FF" opacity="0.5"/>
<path d="M32,36 Q33,44 34,50" stroke="#64D2FF" stroke-width="2" fill="none" stroke-linecap="round"/>
<path d="M34,50 Q36,55 39,59" stroke="#64D2FF" stroke-width="1.4" fill="none" stroke-linecap="round"/>
<path d="M34,50 Q32,55 28,59" stroke="#64D2FF" stroke-width="1.4" fill="none" stroke-linecap="round"/>
<circle cx="39" cy="59" r="2.5" fill="#64D2FF" opacity="0.7"/>
<circle cx="28" cy="59" r="2.5" fill="#64D2FF" opacity="0.7"/>
</g>
</svg>
